<?xml version="1.0" standalone="no"?>
<!DOCTYPE svg PUBLIC "-//W3C//DTD SVG 20010904//EN"
 "http://www.w3.org/TR/2001/REC-SVG-20010904/DTD/svg10.dtd">
<svg version="1.0" xmlns="http://www.w3.org/2000/svg"
 width="290.000000pt" height="140.000000pt" viewBox="0 0 290.000000 140.000000"
 preserveAspectRatio="xMidYMid meet">

<g transform="translate(0.000000,140.000000) scale(0.100000,-0.100000)"
fill="#000000" stroke="none">
<path d="M1430 830 l0 -430 85 0 85 0 0 240 c0 219 2 240 18 249 11 6 24 6 35
0 15 -9 17 -33 17 -249 l0 -240 85 0 85 0 0 253 c0 138 -5 268 -10 288 -5 19
-24 48 -41 65 -26 25 -38 29 -86 29 -48 0 -58 -4 -79 -28 l-24 -28 0 140 0
141 -85 0 -85 0 0 -430z"/>
<path d="M110 1239 c0 -6 32 -117 70 -247 l70 -236 0 -178 0 -178 90 0 90 0 0
181 0 181 56 197 c30 108 61 217 69 244 l14 47 -83 0 -83 0 -29 -135 c-15 -74
-30 -132 -32 -130 -2 2 -18 61 -36 132 l-32 128 -82 3 c-57 2 -82 -1 -82 -9z"/>
<path d="M642 1026 c-75 -25 -112 -76 -112 -156 l0 -40 80 0 80 0 0 29 c0 21
6 32 20 36 44 14 68 -46 33 -78 -10 -8 -38 -21 -63 -27 -126 -34 -159 -79
-160 -218 0 -49 6 -96 14 -117 33 -78 155 -88 213 -17 l23 27 0 -32 0 -33 81
0 80 0 -3 268 c-3 301 -6 314 -75 348 -48 23 -154 28 -211 10z m107 -482 c-29
-36 -69 -1 -69 61 0 59 8 75 44 90 l31 13 3 -75 c2 -46 -2 -80 -9 -89z"/>
<path d="M1093 1030 c-44 -14 -91 -64 -104 -112 -6 -25 -9 -112 -7 -227 3
-171 5 -189 25 -221 29 -47 73 -71 141 -77 144 -13 222 54 222 191 l0 46 -73
0 -73 0 -10 -42 c-10 -46 -33 -60 -59 -38 -20 16 -22 309 -3 328 29 29 68 2
68 -47 0 -19 6 -21 76 -21 l77 0 -6 66 c-5 74 -24 107 -76 138 -38 22 -149 31
-198 16z"/>
<path d="M2012 1026 c-75 -25 -112 -76 -112 -156 l0 -40 80 0 80 0 0 29 c0 21
6 32 20 36 44 14 68 -46 33 -78 -10 -8 -38 -21 -63 -27 -126 -34 -159 -79
-160 -218 0 -49 6 -96 14 -117 33 -78 155 -88 213 -17 l23 27 0 -32 0 -33 81
0 80 0 -3 268 c-3 301 -6 314 -75 348 -48 23 -154 28 -211 10z m107 -482 c-29
-36 -69 -1 -69 61 0 59 8 75 44 90 l31 13 3 -75 c2 -46 -2 -80 -9 -89z"/>
<path d="M2350 765 c0 -294 5 -321 59 -349 54 -28 120 -18 160 25 l21 23 0
-95 c0 -98 -7 -119 -42 -119 -23 0 -38 30 -38 74 l0 36 -81 0 -82 0 7 -71 c7
-79 23 -117 62 -148 61 -48 191 -53 260 -10 72 44 74 53 74 502 l0 397 -80 0
-80 0 0 -229 c0 -196 -2 -230 -16 -242 -11 -9 -20 -10 -32 -2 -15 9 -17 38
-20 242 l-2 231 -85 0 -85 0 0 -265z"/>
</g>
</svg>
