<?xml version="1.0" standalone="no"?>
<!DOCTYPE svg PUBLIC "-//W3C//DTD SVG 20010904//EN"
 "http://www.w3.org/TR/2001/REC-SVG-20010904/DTD/svg10.dtd">
<svg version="1.0" xmlns="http://www.w3.org/2000/svg"
 width="1024.000000pt" height="1024.000000pt" viewBox="0 0 1024.000000 1024.000000"
 preserveAspectRatio="xMidYMid meet">

<g transform="translate(0.000000,1024.000000) scale(0.100000,-0.100000)"
fill="#000000" stroke="none">
<path d="M2391 9494 c-161 -80 -427 -413 -577 -720 -69 -143 -137 -348 -165
-499 -42 -223 -30 -469 32 -672 97 -321 425 -696 752 -863 106 -54 154 -62
207 -35 27 14 50 42 50 62 0 5 -28 29 -62 52 -88 63 -279 251 -360 356 -283
364 -372 762 -265 1175 56 214 134 389 248 561 76 113 157 199 187 199 42 0
45 -55 20 -313 -26 -275 -31 -705 -10 -877 34 -267 104 -541 176 -692 57 -117
105 -193 116 -182 4 5 13 27 20 49 46 144 176 316 368 486 l73 64 -32 75
c-129 304 -210 591 -299 1065 -85 452 -118 560 -202 651 -47 52 -126 94 -174
94 -17 0 -64 -16 -103 -36z"/>
<path d="M7665 9507 c-97 -46 -169 -153 -214 -318 -11 -39 -41 -182 -67 -318
-101 -541 -166 -791 -283 -1085 -29 -70 -49 -135 -46 -145 4 -9 42 -47 87 -86
91 -80 224 -233 272 -316 37 -62 76 -160 76 -189 0 -36 16 -21 64 61 115 193
193 466 231 809 20 180 19 559 -1 880 -19 306 -13 337 57 299 40 -21 179 -225
253 -369 137 -269 204 -527 192 -745 -13 -252 -99 -498 -253 -728 -83 -124
-273 -321 -392 -407 -49 -36 -90 -72 -90 -80 -1 -19 28 -55 56 -69 103 -52
366 100 614 356 237 245 355 480 390 776 24 209 -9 484 -86 708 -101 292 -323
641 -543 851 -132 126 -224 160 -317 115z"/>
<path d="M5214 8676 c-74 -33 -104 -124 -85 -259 6 -46 18 -108 25 -138 8 -30
13 -56 11 -58 -2 -2 -53 44 -112 103 -129 127 -224 199 -341 259 -123 64 -219
91 -317 91 -116 0 -171 -36 -196 -126 -26 -98 55 -279 190 -421 30 -31 52 -59
50 -61 -3 -3 -61 24 -129 59 -208 105 -382 155 -539 155 -135 -1 -209 -35
-238 -109 -33 -85 11 -173 159 -317 51 -49 111 -104 133 -121 44 -35 44 -50
-1 -32 -16 6 -69 11 -119 12 -107 1 -182 -19 -251 -66 -103 -70 -119 -175 -49
-310 19 -37 35 -70 35 -73 0 -3 -24 -3 -52 1 -152 19 -372 -70 -448 -180 -66
-96 -62 -177 15 -290 l45 -65 -28 0 c-35 -1 -98 -29 -139 -64 -35 -29 -72 -88
-97 -156 l-17 -45 -192 -29 c-394 -58 -827 -147 -865 -178 -39 -33 -52 -88
-51 -228 0 -192 11 -218 129 -294 36 -24 71 -50 78 -59 9 -10 19 -79 28 -194
25 -312 83 -564 171 -737 13 -27 21 -52 16 -55 -4 -4 -38 -31 -75 -60 -130
-101 -208 -218 -208 -313 0 -67 20 -102 76 -128 40 -20 56 -22 128 -17 45 3
94 10 109 16 18 7 27 7 27 0 0 -5 -24 -50 -54 -99 -30 -49 -69 -129 -87 -177
-30 -79 -33 -99 -33 -198 -1 -95 2 -116 22 -156 58 -119 195 -88 356 82 47 49
86 88 86 85 0 -3 -11 -38 -24 -78 -30 -92 -56 -243 -56 -322 1 -131 51 -274
112 -317 76 -55 143 -45 218 30 46 46 110 154 110 184 0 8 8 21 17 28 15 13
16 11 9 -11 -14 -49 -18 -226 -7 -297 30 -193 128 -320 255 -331 79 -6 124 22
187 117 27 41 49 85 49 97 0 13 4 25 9 28 5 3 11 -54 14 -127 5 -156 26 -226
92 -316 57 -77 131 -116 222 -116 87 0 135 35 185 135 21 40 39 67 41 59 2 -8
10 -36 16 -63 21 -90 61 -157 140 -237 80 -80 153 -119 224 -119 76 1 162 70
190 153 l13 39 36 -59 c80 -129 224 -226 337 -226 31 0 66 5 79 12 20 11 27 8
69 -29 121 -106 303 -88 442 45 32 30 63 55 70 55 7 0 24 -9 38 -20 92 -72
243 -36 328 80 38 51 85 150 85 177 0 25 10 9 35 -50 31 -77 69 -122 128 -152
154 -76 342 41 418 262 10 31 19 67 19 80 0 33 17 29 36 -9 32 -63 84 -116
139 -144 47 -22 64 -26 106 -21 153 18 269 193 286 430 l6 87 54 -60 c58 -63
118 -105 177 -121 70 -19 183 56 235 158 47 93 71 281 52 408 -5 38 -8 71 -6
73 2 2 13 -16 26 -40 37 -74 89 -137 135 -164 88 -52 198 -13 251 89 26 49 28
60 28 172 -1 108 -4 129 -32 210 -17 50 -30 91 -29 93 2 1 20 -12 42 -29 57
-46 133 -79 181 -79 74 0 131 67 147 171 15 102 -51 295 -149 436 l-46 66 33
-7 c96 -20 156 -19 200 2 91 45 107 139 45 265 -35 71 -116 167 -185 218 l-32
25 30 57 c94 173 155 432 184 785 9 100 19 168 27 178 7 9 35 27 61 40 73 37
126 89 140 138 6 22 12 97 12 166 1 148 -17 210 -65 236 -59 30 -557 131 -859
174 -85 12 -164 26 -175 30 -12 4 -27 27 -37 56 -40 114 -126 199 -228 225
l-47 12 33 49 c42 62 58 119 50 182 -17 146 -184 261 -378 261 l-76 0 33 45
c100 138 99 247 -3 296 -40 19 -139 25 -204 11 l-38 -8 21 48 c57 132 74 273
42 340 -60 127 -224 85 -406 -102 -41 -42 -48 -46 -43 -25 3 14 11 69 18 122
19 161 -14 303 -92 392 -42 48 -79 66 -132 66 -56 0 -101 -28 -139 -87 -32
-52 -83 -199 -93 -275 -4 -27 -11 -48 -15 -48 -5 0 -23 45 -40 100 -61 191
-138 330 -240 430 -103 100 -233 150 -307 116z m-1489 -2255 c525 -68 707
-148 852 -371 73 -113 59 -104 126 -81 211 73 524 80 771 16 50 -13 98 -26
107 -30 12 -4 30 16 73 84 126 200 272 284 599 346 406 77 882 85 1312 24 303
-43 872 -157 935 -187 48 -23 59 -61 59 -212 1 -156 -6 -171 -117 -235 -50
-29 -84 -56 -91 -73 -7 -15 -19 -105 -27 -202 -47 -570 -180 -893 -461 -1118
-234 -188 -516 -272 -917 -272 -279 0 -457 32 -635 116 -124 58 -197 112 -308
227 -222 230 -412 623 -478 992 -9 50 -21 102 -26 117 -13 31 -67 60 -154 79
-80 18 -370 18 -450 0 -64 -14 -124 -41 -143 -63 -6 -8 -25 -79 -41 -159 -80
-379 -253 -736 -465 -957 -180 -188 -350 -279 -611 -328 -82 -16 -147 -19
-360 -19 -282 1 -370 12 -545 72 -303 104 -531 313 -662 608 -88 197 -125 367
-152 701 -8 94 -20 185 -28 202 -10 24 -33 43 -88 75 -45 25 -84 56 -98 77
-23 33 -24 41 -20 176 4 161 13 186 75 204 173 48 810 165 1063 194 206 24
207 24 485 21 191 -2 303 -9 420 -24z m1066 -1845 c24 -7 82 -36 128 -65 82
-50 161 -81 206 -81 36 0 117 31 172 66 92 58 154 86 209 91 97 10 193 -56
244 -168 37 -83 20 -153 -47 -184 -36 -17 -41 -17 -103 -2 -112 29 -106 32
-258 -117 l-137 -134 -6 -99 c-10 -144 3 -236 45 -303 43 -69 120 -124 206
-147 87 -23 261 -23 350 0 209 55 356 206 375 385 7 66 23 92 56 92 101 0 120
-174 35 -319 -56 -96 -134 -165 -258 -227 -36 -18 -69 -38 -72 -43 -4 -5 -18
-49 -32 -97 -84 -290 -292 -505 -564 -581 -51 -14 -100 -18 -230 -17 -157 0
-170 2 -258 31 -174 58 -310 163 -410 315 -52 81 -107 211 -118 279 -9 55 -33
81 -112 124 -96 53 -157 102 -205 165 -122 161 -118 370 7 370 32 0 42 -19 51
-98 20 -178 163 -322 375 -379 89 -24 273 -24 355 1 113 33 201 111 234 206
16 47 25 202 17 276 l-7 59 -138 138 c-153 152 -151 151 -251 121 -64 -19
-109 -12 -143 22 -57 57 -37 164 46 251 75 78 145 98 238 69z"/>
<path d="M3085 6190 c-315 -28 -555 -119 -673 -256 -54 -62 -105 -168 -127
-264 -23 -100 -31 -338 -16 -469 67 -572 408 -852 1039 -851 200 0 367 29 507
87 348 145 597 569 598 1018 0 217 -44 336 -173 466 -110 111 -228 170 -437
220 -190 45 -513 67 -718 49z m610 -194 c420 -144 630 -608 466 -1031 -79
-203 -257 -372 -468 -443 -72 -24 -91 -27 -248 -27 -161 0 -174 2 -250 28
-317 111 -524 400 -526 732 -1 123 14 208 52 303 71 180 203 317 387 404 120
57 181 68 357 65 133 -3 159 -6 230 -31z"/>
<path d="M3315 5831 c-228 -66 -397 -265 -436 -511 -37 -241 102 -506 324
-615 176 -86 353 -84 536 6 152 75 263 213 306 384 22 88 20 238 -6 321 -63
208 -223 367 -419 419 -75 20 -230 18 -305 -4z m350 -192 c83 -31 172 -118
216 -211 33 -70 34 -78 34 -188 0 -97 -4 -124 -24 -173 -32 -82 -123 -177
-209 -219 -59 -29 -76 -33 -152 -33 -67 0 -95 5 -135 23 -79 36 -125 73 -172
135 -156 212 -86 539 140 654 95 48 196 52 302 12z"/>
<path d="M3640 5470 c-44 -44 -29 -115 29 -139 52 -22 111 23 111 84 0 62 -95
100 -140 55z"/>
<path d="M6735 6190 c-530 -47 -807 -211 -892 -530 -24 -89 -24 -304 1 -420
57 -276 198 -530 372 -674 218 -180 565 -253 944 -201 500 70 757 334 811 835
16 146 6 393 -20 492 -89 342 -361 487 -946 502 -93 3 -215 1 -270 -4z m271
-180 c218 -55 395 -197 493 -395 61 -122 75 -187 75 -350 1 -120 -2 -151 -22
-215 -90 -284 -295 -482 -568 -546 -52 -12 -104 -15 -214 -12 -131 4 -154 7
-233 35 -247 87 -418 275 -488 538 -29 110 -29 278 0 390 72 275 277 485 542
554 105 28 307 28 415 1z"/>
<path d="M6620 5834 c-203 -53 -371 -227 -425 -439 -19 -76 -19 -224 0 -300
43 -169 162 -319 308 -389 182 -88 363 -86 544 5 197 99 314 293 316 524 1
182 -55 318 -183 446 -82 82 -160 127 -265 154 -74 19 -222 18 -295 -1z m212
-191 c61 -19 155 -88 190 -139 93 -135 111 -314 44 -459 -35 -77 -115 -158
-195 -198 -59 -29 -74 -32 -156 -32 -82 0 -97 3 -157 33 -125 61 -210 183
-231 329 -20 138 20 269 114 368 105 111 242 146 391 98z"/>
<path d="M6830 5470 c-44 -44 -34 -108 21 -139 35 -19 84 0 105 41 40 76 -65
159 -126 98z"/>
<path d="M4975 3109 c-163 -22 -305 -87 -305 -140 0 -21 103 -97 181 -134 169
-78 390 -71 569 20 80 40 150 94 150 115 0 42 -104 96 -240 126 -85 19 -267
25 -355 13z"/>
<path d="M2902 2408 c-61 -164 -19 -314 104 -374 45 -22 64 -26 118 -22 l64 4
-1 -91 c-2 -106 19 -178 67 -232 80 -92 203 -97 314 -13 l49 38 6 -72 c15
-188 121 -325 252 -326 78 0 183 73 246 170 15 23 16 22 21 -50 13 -161 101
-286 226 -320 73 -19 144 11 220 94 28 31 56 72 62 91 15 45 26 38 34 -24 14
-108 109 -237 192 -260 58 -16 134 -13 179 8 39 18 125 101 125 121 0 21 18 9
30 -20 7 -16 29 -45 50 -64 106 -95 256 -65 345 70 20 30 41 69 46 86 6 18 13
39 15 47 3 8 17 -4 39 -32 118 -154 303 -122 391 67 13 28 27 68 30 89 4 20 9
37 13 37 3 0 22 -17 42 -39 21 -21 58 -47 83 -56 40 -16 54 -16 99 -6 136 30
257 182 257 321 0 26 3 25 42 -10 93 -85 219 -53 277 69 22 48 26 69 25 149
-1 80 1 92 15 88 52 -16 76 -17 121 -6 73 17 122 58 158 129 38 76 48 149 32
227 -17 81 -43 130 -75 138 -14 4 -29 4 -34 2 -4 -3 -20 -36 -35 -74 -93 -239
-320 -346 -533 -252 l-47 21 -25 -33 c-13 -18 -47 -55 -73 -81 -147 -145 -322
-183 -488 -106 l-69 31 -53 -45 c-81 -68 -131 -90 -220 -95 -55 -3 -92 0 -128
12 l-51 17 -62 -45 c-150 -107 -337 -115 -480 -20 -37 24 -49 27 -156 28 -103
1 -122 4 -171 27 -30 14 -81 47 -112 72 -31 26 -61 47 -67 47 -6 0 -26 -11
-46 -24 -20 -14 -65 -29 -103 -36 -142 -25 -269 28 -407 171 -47 49 -89 89
-92 89 -4 0 -26 -9 -49 -21 -59 -28 -180 -28 -255 0 -91 34 -195 136 -250 243
-18 36 -22 38 -67 38 -26 0 -78 12 -117 26 -38 13 -77 27 -86 30 -13 4 -22 -7
-37 -48z"/>
</g>
</svg>
